<svg width="71" height="70" viewBox="0 0 71 70" xmlns="http://www.w3.org/2000/svg">
<path fillRule="evenodd" clipRule="evenodd" d="M70.9594 44.717C65.9749 47.2699 60.3263 48.7103 54.3412 48.7103C34.1803 48.7103 17.8366 32.3666 17.8366 12.2057C17.8366 7.92506 18.5734 3.81654 19.927 0C8.12094 6.04679 0.0406036 18.3354 0.0406036 32.5113C0.0406036 52.6723 16.3843 69.016 36.5452 69.016C52.4256 69.016 65.9375 58.8757 70.9594 44.717Z" fill="#5e3a9d"/>
<path d="M52.9922 4.6281C53.2915 3.70679 54.5949 3.70679 54.8943 4.6281L56.1884 8.61088C56.3222 9.0229 56.7062 9.30186 57.1394 9.30186H61.3272C62.2959 9.30186 62.6987 10.5415 61.9149 11.1109L58.527 13.5724C58.1765 13.827 58.0298 14.2784 58.1637 14.6904L59.4578 18.6732C59.7572 19.5945 58.7027 20.3606 57.919 19.7912L54.531 17.3297C54.1805 17.0751 53.7059 17.0751 53.3554 17.3297L49.9675 19.7912C49.1838 20.3606 48.1293 19.5945 48.4286 18.6732L49.7227 14.6904C49.8566 14.2784 49.7099 13.827 49.3595 13.5724L45.9715 11.1109C45.1878 10.5415 45.5906 9.30186 46.5593 9.30186H50.747C51.1803 9.30186 51.5642 9.0229 51.6981 8.61088L52.9922 4.6281Z" fill="#5e3a9d"/>
</svg>
